<?xml version="1.0" encoding="utf-8"?>
<!-- Generator: Adobe Illustrator 25.4.1, SVG Export Plug-In . SVG Version: 6.00 Build 0)  -->
<svg version="1.1" id="Layer_1" xmlns="http://www.w3.org/2000/svg" xmlns:xlink="http://www.w3.org/1999/xlink" x="0px" y="0px"
	 viewBox="0 0 42.8 30.8" style="enable-background:new 0 0 42.8 30.8;" xml:space="preserve">
<style type="text/css">
	.st0{fill:#FFFFFF;stroke:#000000;}
	.st1{fill:none;stroke:#000000;}
	.st2{stroke:#000000;}
	.st3{fill:#FFFFFF;}
	.st4{fill:#FCFAFA;stroke:#000000;}
</style>
<g id="Layer_1_00000147933176649644516020000002740467536445204144_">
</g>
<g id="Layer_2_00000116921444811375825380000010354526531738605713_">
	<path class="st0" d="M26.4,25h-22c-1.6,0-2.8-1.3-2.8-2.8V4.7c0-1.6,1.3-2.8,2.8-2.8h22c1.6,0,2.8,1.3,2.8,2.8v17.5
		C29.2,23.8,28,25,26.4,25z"/>
	<line class="st1" x1="1.6" y1="19.6" x2="29.2" y2="19.6"/>
	<rect x="12.9" y="25" class="st2" width="5.1" height="3.9"/>
	<line class="st1" x1="10.6" y1="28.9" x2="20.3" y2="28.9"/>
	<circle class="st2" cx="15.4" cy="22" r="0.3"/>
	<path class="st0" d="M37.4,11.3v16H23.3v-16c0-0.9,0.7-1.6,1.6-1.6h10.9C36.7,9.7,37.4,10.4,37.4,11.3z"/>
	<path class="st2" d="M37.4,27.3v0.3c0,0.9-0.7,1.6-1.6,1.6H24.9c-0.9,0-1.6-0.7-1.6-1.6v-0.3H37.4z"/>
	<circle class="st3" cx="30.4" cy="28.3" r="0.6"/>
	<path class="st4" d="M41.2,18v9.6h-8V18c0-1,0.8-1.8,1.7-1.8h4.6C40.4,16.2,41.2,17,41.2,18z"/>
	<path class="st2" d="M41.2,27.6V28c0,0.7-0.8,1.2-1.7,1.2h-4.6c-0.9,0-1.7-0.5-1.7-1.2v-0.4H41.2z"/>
	<circle class="st3" cx="37.4" cy="28.3" r="0.6"/>
</g>
</svg>
