<?xml version="1.0" encoding="utf-8"?>
<!-- Generator: Adobe Illustrator 25.4.1, SVG Export Plug-In . SVG Version: 6.00 Build 0)  -->
<svg version="1.1" xmlns="http://www.w3.org/2000/svg" xmlns:xlink="http://www.w3.org/1999/xlink" x="0px" y="0px"
	 viewBox="0 0 45 45" style="enable-background:new 0 0 45 45;" xml:space="preserve">
<style type="text/css">
	.st0{fill:#021556;}
	.st1{fill:#FCFDFD;}
	.st2{fill:#B90023;}
</style>
<g id="Layer_2">
	<path class="st0" d="M5.2,9h34.6c1.3,0,2.4,1.1,2.4,2.4v22.2c0,1.3-1.1,2.4-2.4,2.4H5.2c-1.3,0-2.4-1.1-2.4-2.4V11.4
		C2.8,10.1,3.9,9,5.2,9z"/>
	<path class="st0" d="M21.1,22.7L2.8,32.2V11.4C2.8,10.1,3.9,9,5.2,9h34.6c1.1,0,2,0.8,2.3,1.8L22.8,20.9L21.1,22.7z"/>
	<path class="st0" d="M42.2,12.5v21.1c0,1.3-1.1,2.4-2.4,2.4H5.2c-1.2,0-2.1-0.8-2.4-2l19-10l1.6-1.8L42.2,12.5z"/>
	<g>
		<path class="st1" d="M42.2,11.4V15L3.1,34.8c-0.2-0.4-0.3-0.8-0.3-1.2v-4.1L41.7,9.9C42,10.3,42.2,10.8,42.2,11.4z"/>
		<path class="st2" d="M42.2,11.4v1.2l-18.7,9.8l-1.6,1.8l-19,10c0-0.1,0-0.3,0-0.4v-1.4l18.3-9.6l1.7-1.8l19.3-10.1
			C42.2,11,42.2,11.2,42.2,11.4z"/>
	</g>
	<g>
		<path class="st1" d="M2.8,11.4l0,3.7l39,19.8c0.2-0.3,0.3-0.8,0.3-1.2l0-4.1L3.4,9.9C3,10.3,2.8,10.8,2.8,11.4z"/>
		<path class="st2" d="M2.8,11.4l0,1.2l18.7,9.8l1.6,1.8l19,10c0-0.1,0-0.3,0-0.4l0-1.4l-18.3-9.6l-1.6-1.8L2.9,10.8
			C2.8,11,2.8,11.2,2.8,11.4z"/>
	</g>
	<polygon class="st1" points="18,9 18,17.9 2.8,17.9 2.9,27.1 18,27.1 18,36 27.1,36 27.1,27 42.2,27 42.2,17.9 27.2,17.9 27.2,9 	
		"/>
	<polygon class="st2" points="19.8,19.9 2.8,19.9 2.8,25.4 19.8,25.4 19.8,36.2 25.3,36.2 25.3,25.3 42.2,25.3 42.2,19.9 25.2,19.9 
		25.2,9 19.9,9 	"/>
</g>
<g id="Layer_1">
	
		<image style="display:none;overflow:visible;" width="100" height="69" xlink:href="eng.png"  transform="matrix(0.3939 0 0 0.3939 2.8074 8.9864)">
	</image>
</g>
</svg>
