<?xml version="1.0" encoding="utf-8"?>
<!-- Generator: Adobe Illustrator 25.4.1, SVG Export Plug-In . SVG Version: 6.00 Build 0)  -->
<svg version="1.1" xmlns="http://www.w3.org/2000/svg" xmlns:xlink="http://www.w3.org/1999/xlink" x="0px" y="0px"
	 viewBox="0 0 50 50" style="enable-background:new 0 0 50 50;" xml:space="preserve">
<style type="text/css">
	.st0{fill:#2D3038;}
	.st1{fill:#19BAFC;}
	.st2{fill:#FF7361;}
	.st3{fill:#F14E1E;}
	.st4{fill:#A15BFE;}
	.st5{fill:#07D185;}
</style>
<g id="Layer_1">
</g>
<g id="Layer_2">
	<path class="st0" d="M14.7,2.4h20.5C41.7,2.4,47,7.7,47,14.2v20.5c0,6.5-5.3,11.7-11.7,11.7H14.7C8.3,46.4,3,41.2,3,34.7V14.2
		C3,7.7,8.3,2.4,14.7,2.4z"/>
	<circle class="st1" cx="30.7" cy="24.4" r="5.7"/>
	<path class="st2" d="M25,7.3c0,0,4.4,0,5.7,0c3.1,0,5.7,2.6,5.7,5.7s-2.6,5.7-5.7,5.7c-1.4,0-5.7,0-5.7,0V7.3z"/>
	<path class="st3" d="M13.6,13c0-3.1,2.6-5.7,5.7-5.7c1.3,0,5.7,0,5.7,0s0,3.9,0,5.7c0,1.6,0,5.7,0,5.7s-4.1,0-5.7,0
		C16.1,18.7,13.6,16.2,13.6,13z"/>
	<path class="st4" d="M13.6,24.4c0-3.1,2.6-5.7,5.7-5.7c1.6,0,5.7,0,5.7,0s0,4.1,0,5.7c0,1.7,0,5.7,0,5.7s-4.3,0-5.7,0
		C16.1,30.1,13.6,27.6,13.6,24.4z"/>
	<path class="st5" d="M13.6,35.8c0-3.1,2.6-5.7,5.7-5.7c1.6,0,5.7,0,5.7,0s0,4.1,0,5.7c0,3.1-2.6,5.7-5.7,5.7S13.6,39,13.6,35.8z"/>
</g>
</svg>
