<?xml version="1.0" encoding="utf-8"?>
<!-- Generator: Adobe Illustrator 25.4.1, SVG Export Plug-In . SVG Version: 6.00 Build 0)  -->
<svg version="1.1" xmlns="http://www.w3.org/2000/svg" xmlns:xlink="http://www.w3.org/1999/xlink" x="0px" y="0px"
	 viewBox="0 0 50 50" style="enable-background:new 0 0 50 50;" xml:space="preserve">
<style type="text/css">
	.st0{fill:#F05033;}
</style>
<g id="Layer_2">
</g>
<g id="Layer_1">
	<path class="st0" d="M49,25.7L25.7,49c-0.4,0.4-1,0.4-1.4,0L1,25.7c-0.4-0.4-0.4-1,0-1.4L16.7,8.6l5,5c-0.3,0.5-0.5,1.2-0.5,1.8
		c0,1.6,1,3,2.5,3.5v12.5l0,0c-1.5,0.5-2.5,2-2.5,3.7c0,1.8,1.4,3.3,3.1,3.6c2.4,0.4,4.4-1.4,4.4-3.7c0-1.7-1.1-3.1-2.6-3.6V19
		c0.2-0.1,0.5-0.2,0.7-0.3l4.7,4.7c-0.4,0.8-0.5,1.7-0.2,2.7c0.4,1.4,1.6,2.4,3,2.6c2.6,0.4,4.8-1.8,4.3-4.5c-0.3-1.6-1.7-2.9-3.3-3
		c-0.8-0.1-1.5,0.1-2.1,0.4l-4.8-4.8l0,0c0.2-0.5,0.3-0.9,0.3-1.6c0-1.2-0.6-2.5-1.7-3.1c-1.2-0.7-2.4-0.7-3.5-0.3l-5.1-5.1L24.3,1
		c0.4-0.4,1-0.4,1.4,0L49,24.3C49.4,24.7,49.4,25.3,49,25.7z"/>
</g>
</svg>
