<?xml version="1.0" encoding="utf-8"?>
<!-- Generator: Adobe Illustrator 25.4.1, SVG Export Plug-In . SVG Version: 6.00 Build 0)  -->
<svg version="1.1" xmlns="http://www.w3.org/2000/svg" xmlns:xlink="http://www.w3.org/1999/xlink" x="0px" y="0px"
	 viewBox="0 0 50 50" style="enable-background:new 0 0 50 50;" xml:space="preserve">
<style type="text/css">
	.st0{stroke:#000000;stroke-width:0.25;stroke-miterlimit:10;}
</style>
<g id="Layer_2">
</g>
<g id="Layer_1">
	<path class="st0" d="M48.5,25c0,10.3-6.8,19.1-16.2,21.9c-0.2-0.5-0.5-0.7-1-0.9v-8c-0.1-1.4-0.4-2.2-1.5-2.8
		c6.2-1,10.2-4.1,10.3-9.7c0.1-5.2-0.4-5.6-2.2-8.1c0.5-2.1,0.4-4.2-0.7-6c-2.4-0.2-4.5,0.5-6.1,2.6c-3.7-1.1-7.4-1.1-11.2,0
		c-1.8-1.5-3.9-2.4-6.2-2.6c-0.7,1.9-0.7,4.1-0.2,6.4c-1.6,1.7-2.5,2.5-2.4,7.1c0.1,5.4,2.9,8.9,10.3,10.2c-1,0.5-1.4,1.7-1.5,3.4
		c-1.3,0.3-3.2,0.3-4.3,0c-2.9-0.7-2.1-3.2-4.4-4.4c-0.9-0.5-1.8-0.4-2.7,0c1.4,0.7,2,0.5,2.8,2.4c0.5,1.2,0.6,3.5,3.9,4.8
		c1.3,0.6,3.3,0.4,4.8,0v4.6c-0.4,0-0.9,0.4-0.9,0.8l0,0C9.6,44.2,2.7,35.4,2.7,25c0-12.7,10.3-22.9,22.9-22.9
		C38.2,2.1,48.5,12.3,48.5,25z"/>
</g>
</svg>
