<?xml version="1.0" encoding="utf-8"?>
<!-- Generator: Adobe Illustrator 25.4.1, SVG Export Plug-In . SVG Version: 6.00 Build 0)  -->
<svg version="1.1" id="Layer_1" xmlns="http://www.w3.org/2000/svg" xmlns:xlink="http://www.w3.org/1999/xlink" x="0px" y="0px"
	 viewBox="0 0 38.6 38.8" style="enable-background:new 0 0 38.6 38.8;" xml:space="preserve">
<style type="text/css">
	.st0{fill:#002934;stroke:#0AD4F8;stroke-miterlimit:10;}
	.st1{fill:none;stroke:#000000;stroke-miterlimit:10;}
	.st2{fill:none;}
	.st3{fill:#002934;}
	.st4{font-family:'ArialMT';}
	.st5{font-size:24px;}
	.st6{enable-background:new    ;}
	.st7{fill:none;stroke:#0AD4F8;stroke-miterlimit:10;}
</style>
<path class="st0" d="M30.8,37.3H7.9c-3.6,0-6.6-2.9-6.6-6.6V7.8c0-3.6,2.9-6.6,6.6-6.6h22.9c3.6,0,6.6,2.9,6.6,6.6v22.9
	C37.4,34.3,34.4,37.3,30.8,37.3z"/>
<path class="st1" d="M30.8,36.3h-23c-3.1,0-5.6-2.5-5.6-5.6v-23c0-3.1,2.5-5.6,5.6-5.6h23c3.1,0,5.6,2.5,5.6,5.6v23
	C36.4,33.8,33.9,36.3,30.8,36.3z"/>
<rect x="6.9" y="9.7" class="st2" width="24.8" height="18.3"/>
<text transform="matrix(1 0 0 1 8.2221 26.7237)" class="st3 st4 st5">Ps</text>
<g class="st6">
	<path class="st7" d="M7.4,26.7V9.5h6.5c1.1,0,2,0.1,2.6,0.2c0.8,0.1,1.6,0.4,2.1,0.8s1,0.9,1.4,1.7c0.3,0.7,0.5,1.5,0.5,2.3
		c0,1.5-0.5,2.7-1.4,3.7c-0.9,1-2.6,1.5-5,1.5H9.6v7H7.4z M9.6,17.7h4.4c1.5,0,2.5-0.3,3.1-0.8s0.9-1.3,0.9-2.3
		c0-0.7-0.2-1.3-0.5-1.8s-0.8-0.8-1.4-1c-0.4-0.1-1.1-0.2-2.1-0.2H9.6V17.7z"/>
	<path class="st7" d="M22.3,23l2.1-0.3c0.1,0.8,0.4,1.5,1,1.9s1.3,0.7,2.2,0.7c1,0,1.7-0.2,2.2-0.6s0.7-0.9,0.7-1.4
		c0-0.5-0.2-0.9-0.6-1.1c-0.3-0.2-1-0.4-2.2-0.7c-1.5-0.4-2.6-0.7-3.2-1s-1.1-0.7-1.4-1.2s-0.5-1.1-0.5-1.7c0-0.6,0.1-1.1,0.4-1.5
		s0.6-0.9,1-1.2c0.3-0.2,0.8-0.4,1.3-0.6s1.2-0.3,1.8-0.3c1,0,1.8,0.1,2.6,0.4s1.3,0.7,1.6,1.1s0.6,1.1,0.7,1.9l-2.1,0.3
		c-0.1-0.6-0.4-1.1-0.8-1.5s-1.1-0.5-1.9-0.5c-1,0-1.7,0.2-2.1,0.5s-0.6,0.7-0.6,1.1c0,0.3,0.1,0.5,0.3,0.7c0.2,0.2,0.4,0.4,0.8,0.6
		c0.2,0.1,0.8,0.3,1.9,0.5c1.5,0.4,2.5,0.7,3.1,1s1.1,0.6,1.4,1.1s0.5,1.1,0.5,1.8c0,0.7-0.2,1.4-0.6,2s-1,1.1-1.8,1.4
		S28.6,27,27.6,27c-1.6,0-2.8-0.3-3.7-1S22.5,24.3,22.3,23z"/>
</g>
</svg>
