<?xml version="1.0" encoding="utf-8"?>
<!-- Generator: Adobe Illustrator 25.4.1, SVG Export Plug-In . SVG Version: 6.00 Build 0)  -->
<svg version="1.1" xmlns="http://www.w3.org/2000/svg" xmlns:xlink="http://www.w3.org/1999/xlink" x="0px" y="0px"
	 viewBox="0 0 50 50" style="enable-background:new 0 0 50 50;" xml:space="preserve">
<style type="text/css">
	.st0{fill:#D2699C;}
</style>
<g id="Layer_2">
</g>
<g id="Layer_1">
	<path class="st0" d="M19.8,19.9c0,0,1.3,3.9,7,4C36.6,24.1,48.5,13.4,42,6.4S20.3,6.3,17.4,8.1S6.8,14.9,6.8,20.7
		c-0.1,5.8,4.3,8,9.8,11.6c6.4,4.2-0.1,13.9-3.7,11.6c-4.4-2.8,9.5-13.6,17.1-13.6s7.3,5.5,5.9,7.7c5.2-4,2.3-11.2-5.6-10.3
		C22.5,28.6,13,33.7,8.9,40c-3.2,5,3.9,10,9.4,5.1c7.4-6.5,3.6-12.8-4.7-18c-9.1-5.7,5.1-19,18.9-20C49.4,5.8,33.5,26.5,19.8,19.9z"
		/>
</g>
</svg>
