<?xml version="1.0" encoding="utf-8"?>
<!-- Generator: Adobe Illustrator 25.4.1, SVG Export Plug-In . SVG Version: 6.00 Build 0)  -->
<svg version="1.1" id="Layer_1" xmlns="http://www.w3.org/2000/svg" xmlns:xlink="http://www.w3.org/1999/xlink" x="0px" y="0px"
	 viewBox="0 0 44 49.7" style="enable-background:new 0 0 44 49.7;" xml:space="preserve">
<style type="text/css">
	.st0{fill:#FFFFFF;}
	.st1{fill:none;stroke:#B3B3B3;}
	.st2{fill:none;stroke:#B3B3B3;stroke-width:2;}
	.st3{fill:none;}
	.st4{enable-background:new    ;}
	.st5{fill:#B3B3B3;}
</style>
<rect class="st0" width="44" height="49.7"/>
<rect x="2.6" y="1.8" class="st1" width="39" height="45.8"/>
<line class="st1" x1="2.6" y1="8.2" x2="41.6" y2="8.2"/>
<line class="st2" x1="41.6" y1="41.1" x2="2.6" y2="41.1"/>
<line class="st2" x1="41.6" y1="15.4" x2="2.6" y2="15.4"/>
<line class="st1" x1="27.6" y1="14.7" x2="27.6" y2="41.1"/>
<line class="st1" x1="2.6" y1="27.9" x2="27.6" y2="27.9"/>
<rect x="12.6" y="3.1" class="st3" width="21.5" height="3.8"/>
<g class="st4">
	<path class="st5" d="M12.9,5.1V4.7l2.4-1v0.4l-1.9,0.8l1.9,0.8v0.4L12.9,5.1z"/>
	<path class="st5" d="M15.9,6.7V3.1h0.4v1.3C16.5,4.1,16.8,4,17.1,4c0.2,0,0.4,0,0.5,0.1c0.1,0.1,0.2,0.2,0.3,0.3
		C18,4.6,18,4.8,18,5v1.6h-0.4V5c0-0.2,0-0.4-0.1-0.5c-0.1-0.1-0.2-0.2-0.4-0.2c-0.1,0-0.3,0-0.4,0.1c-0.1,0.1-0.2,0.2-0.2,0.3
		c0,0.1-0.1,0.3-0.1,0.5v1.4H15.9z"/>
	<path class="st5" d="M20.4,5.8l0.5,0.1c-0.1,0.3-0.2,0.5-0.4,0.6S20,6.7,19.7,6.7c-0.4,0-0.7-0.1-0.9-0.4c-0.2-0.2-0.3-0.6-0.3-1
		c0-0.4,0.1-0.8,0.3-1S19.4,4,19.7,4c0.3,0,0.6,0.1,0.8,0.4c0.2,0.2,0.3,0.6,0.3,1c0,0,0,0.1,0,0.1H19c0,0.3,0.1,0.5,0.2,0.7
		c0.1,0.2,0.3,0.2,0.5,0.2c0.2,0,0.3,0,0.4-0.1S20.4,6,20.4,5.8z M19,5.1h1.4c0-0.2-0.1-0.4-0.2-0.5c-0.1-0.2-0.3-0.3-0.5-0.3
		c-0.2,0-0.4,0.1-0.5,0.2C19.1,4.7,19,4.9,19,5.1z"/>
	<path class="st5" d="M23.1,6.4c-0.2,0.1-0.3,0.2-0.5,0.3c-0.2,0.1-0.3,0.1-0.5,0.1c-0.3,0-0.5-0.1-0.7-0.2
		c-0.2-0.1-0.2-0.3-0.2-0.5c0-0.1,0-0.2,0.1-0.3c0.1-0.1,0.1-0.2,0.2-0.3c0.1-0.1,0.2-0.1,0.3-0.1c0.1,0,0.2,0,0.4-0.1
		c0.4,0,0.6-0.1,0.8-0.2c0-0.1,0-0.1,0-0.1c0-0.2,0-0.3-0.1-0.4c-0.1-0.1-0.3-0.1-0.5-0.1c-0.2,0-0.4,0-0.5,0.1
		c-0.1,0.1-0.2,0.2-0.2,0.4l-0.4-0.1c0-0.2,0.1-0.3,0.2-0.4s0.2-0.2,0.4-0.3C22.1,4.1,22.3,4,22.5,4c0.2,0,0.4,0,0.5,0.1
		c0.1,0.1,0.2,0.1,0.3,0.2c0.1,0.1,0.1,0.2,0.1,0.3c0,0.1,0,0.2,0,0.4v0.6c0,0.4,0,0.7,0,0.8c0,0.1,0.1,0.2,0.1,0.3h-0.5
		C23.2,6.6,23.1,6.5,23.1,6.4z M23.1,5.4c-0.2,0.1-0.4,0.1-0.7,0.2c-0.2,0-0.3,0.1-0.4,0.1c-0.1,0-0.1,0.1-0.2,0.1S21.8,5.9,21.8,6
		c0,0.1,0,0.2,0.1,0.3c0.1,0.1,0.2,0.1,0.4,0.1c0.2,0,0.3,0,0.5-0.1S23,6.1,23,6c0-0.1,0.1-0.2,0.1-0.4V5.4z"/>
	<path class="st5" d="M25.9,6.7V6.4c-0.2,0.3-0.4,0.4-0.7,0.4c-0.2,0-0.4-0.1-0.6-0.2c-0.2-0.1-0.3-0.3-0.4-0.5
		c-0.1-0.2-0.1-0.4-0.1-0.7c0-0.3,0-0.5,0.1-0.7c0.1-0.2,0.2-0.4,0.4-0.5C24.7,4.1,24.9,4,25.1,4c0.2,0,0.3,0,0.4,0.1
		c0.1,0.1,0.2,0.2,0.3,0.3V3.1h0.4v3.6H25.9z M24.5,5.4c0,0.3,0.1,0.6,0.2,0.7c0.1,0.2,0.3,0.2,0.5,0.2c0.2,0,0.4-0.1,0.5-0.2
		c0.1-0.2,0.2-0.4,0.2-0.7c0-0.4-0.1-0.6-0.2-0.8s-0.3-0.2-0.5-0.2c-0.2,0-0.4,0.1-0.5,0.2C24.6,4.8,24.5,5,24.5,5.4z"/>
	<path class="st5" d="M28.8,5.8l0.5,0.1c-0.1,0.3-0.2,0.5-0.4,0.6c-0.2,0.1-0.4,0.2-0.7,0.2c-0.4,0-0.7-0.1-0.9-0.4
		c-0.2-0.2-0.3-0.6-0.3-1c0-0.4,0.1-0.8,0.3-1S27.7,4,28.1,4c0.3,0,0.6,0.1,0.8,0.4c0.2,0.2,0.3,0.6,0.3,1c0,0,0,0.1,0,0.1h-1.9
		c0,0.3,0.1,0.5,0.2,0.7c0.1,0.2,0.3,0.2,0.5,0.2c0.2,0,0.3,0,0.4-0.1C28.6,6.2,28.7,6,28.8,5.8z M27.3,5.1h1.4
		c0-0.2-0.1-0.4-0.2-0.5c-0.1-0.2-0.3-0.3-0.5-0.3c-0.2,0-0.4,0.1-0.5,0.2C27.4,4.7,27.3,4.9,27.3,5.1z"/>
	<path class="st5" d="M29.8,6.7V4.1h0.4v0.4c0.1-0.2,0.2-0.3,0.3-0.4C30.5,4.1,30.6,4,30.7,4c0.1,0,0.3,0,0.5,0.1L31,4.6
		c-0.1-0.1-0.2-0.1-0.3-0.1c-0.1,0-0.2,0-0.3,0.1c-0.1,0.1-0.1,0.1-0.2,0.2c0,0.2-0.1,0.3-0.1,0.5v1.4H29.8z"/>
	<path class="st5" d="M33.8,5.1l-2.4,1V5.7l1.9-0.8l-1.9-0.8V3.7l2.4,1V5.1z"/>
</g>
<rect x="13.8" y="9.6" class="st3" width="19.2" height="3.8"/>
<g class="st4">
	<path class="st5" d="M14.6,11.4V11l2.4-1v0.4l-1.9,0.8L17,12v0.4L14.6,11.4z"/>
	<path class="st5" d="M17.6,13v-2.6H18v0.4c0.1-0.1,0.2-0.2,0.3-0.3s0.3-0.1,0.5-0.1c0.2,0,0.3,0,0.5,0.1c0.1,0.1,0.2,0.2,0.3,0.3
		c0.2-0.3,0.5-0.5,0.8-0.5c0.3,0,0.5,0.1,0.6,0.2s0.2,0.4,0.2,0.7V13h-0.4v-1.6c0-0.2,0-0.3,0-0.4c0-0.1-0.1-0.1-0.2-0.2
		c-0.1,0-0.2-0.1-0.3-0.1c-0.2,0-0.3,0.1-0.5,0.2s-0.2,0.3-0.2,0.6V13h-0.4v-1.7c0-0.2,0-0.3-0.1-0.4s-0.2-0.1-0.4-0.1
		c-0.1,0-0.2,0-0.3,0.1c-0.1,0.1-0.2,0.2-0.2,0.3c0,0.1-0.1,0.3-0.1,0.5V13H17.6z"/>
	<path class="st5" d="M23.5,12.1l0.5,0.1c-0.1,0.3-0.2,0.5-0.4,0.6c-0.2,0.1-0.4,0.2-0.7,0.2c-0.4,0-0.7-0.1-0.9-0.4
		c-0.2-0.2-0.3-0.6-0.3-1c0-0.4,0.1-0.8,0.3-1s0.5-0.4,0.9-0.4c0.3,0,0.6,0.1,0.8,0.4c0.2,0.2,0.3,0.6,0.3,1c0,0,0,0.1,0,0.1H22
		c0,0.3,0.1,0.5,0.2,0.7c0.1,0.2,0.3,0.2,0.5,0.2c0.2,0,0.3,0,0.4-0.1S23.4,12.3,23.5,12.1z M22.1,11.4h1.4c0-0.2-0.1-0.4-0.2-0.5
		c-0.1-0.2-0.3-0.3-0.5-0.3c-0.2,0-0.4,0.1-0.5,0.2C22.2,11,22.1,11.2,22.1,11.4z"/>
	<path class="st5" d="M24.5,13v-2.6h0.4v0.4c0.2-0.3,0.5-0.4,0.8-0.4c0.2,0,0.3,0,0.4,0.1c0.1,0.1,0.2,0.1,0.3,0.2
		c0.1,0.1,0.1,0.2,0.1,0.3c0,0.1,0,0.2,0,0.4V13h-0.4v-1.6c0-0.2,0-0.3-0.1-0.4S26,10.8,26,10.8c-0.1-0.1-0.2-0.1-0.3-0.1
		c-0.2,0-0.3,0.1-0.5,0.2C25,11,25,11.2,25,11.5V13H24.5z"/>
	<path class="st5" d="M29,13v-0.4c-0.2,0.3-0.5,0.4-0.8,0.4c-0.2,0-0.3,0-0.4-0.1s-0.2-0.1-0.3-0.2c-0.1-0.1-0.1-0.2-0.1-0.3
		c0-0.1,0-0.2,0-0.4v-1.6h0.4v1.4c0,0.2,0,0.4,0,0.5c0,0.1,0.1,0.2,0.2,0.3c0.1,0.1,0.2,0.1,0.3,0.1s0.3,0,0.4-0.1
		c0.1-0.1,0.2-0.2,0.2-0.3S29,12,29,11.8v-1.4h0.4V13H29z"/>
	<path class="st5" d="M32.4,11.4l-2.4,1V12l1.9-0.8L30,10.4V10l2.4,1V11.4z"/>
</g>
<rect x="13.6" y="42.5" class="st3" width="19.5" height="3.8"/>
<g class="st4">
	<path class="st5" d="M13.8,44.7v-0.4l2.4-1v0.4l-1.9,0.8l1.9,0.8v0.4L13.8,44.7z"/>
	<path class="st5" d="M16.9,46.3V44h-0.4v-0.3h0.4v-0.3c0-0.2,0-0.3,0-0.4c0-0.1,0.1-0.2,0.2-0.3c0.1-0.1,0.3-0.1,0.4-0.1
		c0.1,0,0.3,0,0.4,0L18,43.1c-0.1,0-0.2,0-0.3,0c-0.1,0-0.2,0-0.3,0.1s-0.1,0.2-0.1,0.3v0.2h0.5V44h-0.5v2.3H16.9z"/>
	<path class="st5" d="M18,45c0-0.5,0.1-0.8,0.4-1.1c0.2-0.2,0.5-0.3,0.8-0.3c0.4,0,0.6,0.1,0.9,0.4c0.2,0.2,0.3,0.6,0.3,1
		c0,0.3-0.1,0.6-0.1,0.8c-0.1,0.2-0.2,0.3-0.4,0.4c-0.2,0.1-0.4,0.2-0.6,0.2c-0.4,0-0.7-0.1-0.9-0.3C18.1,45.7,18,45.4,18,45z
		 M18.5,45c0,0.3,0.1,0.6,0.2,0.7c0.1,0.2,0.3,0.2,0.5,0.2c0.2,0,0.4-0.1,0.5-0.2S20,45.3,20,45c0-0.3-0.1-0.6-0.2-0.7
		c-0.1-0.2-0.3-0.2-0.5-0.2c-0.2,0-0.4,0.1-0.5,0.2S18.5,44.6,18.5,45z"/>
	<path class="st5" d="M20.8,45c0-0.5,0.1-0.8,0.4-1.1c0.2-0.2,0.5-0.3,0.8-0.3c0.4,0,0.6,0.1,0.9,0.4c0.2,0.2,0.3,0.6,0.3,1
		c0,0.3-0.1,0.6-0.2,0.8c-0.1,0.2-0.2,0.3-0.4,0.4c-0.2,0.1-0.4,0.2-0.6,0.2c-0.4,0-0.7-0.1-0.9-0.3C20.9,45.7,20.8,45.4,20.8,45z
		 M21.2,45c0,0.3,0.1,0.6,0.2,0.7c0.1,0.2,0.3,0.2,0.5,0.2c0.2,0,0.4-0.1,0.5-0.2s0.2-0.4,0.2-0.8c0-0.3-0.1-0.6-0.2-0.7
		C22.4,44.1,22.2,44,22,44c-0.2,0-0.4,0.1-0.5,0.2S21.2,44.6,21.2,45z"/>
	<path class="st5" d="M24.7,45.9l0.1,0.4c-0.1,0-0.2,0-0.3,0c-0.2,0-0.3,0-0.4-0.1c-0.1-0.1-0.2-0.1-0.2-0.2c0-0.1-0.1-0.3-0.1-0.5
		V44h-0.3v-0.3h0.3V43l0.4-0.3v0.9h0.4V44h-0.4v1.5c0,0.1,0,0.2,0,0.2c0,0,0,0.1,0.1,0.1c0,0,0.1,0,0.1,0
		C24.6,45.9,24.6,45.9,24.7,45.9z"/>
	<path class="st5" d="M26.9,45.4l0.5,0.1c-0.1,0.3-0.2,0.5-0.4,0.6c-0.2,0.1-0.4,0.2-0.7,0.2c-0.4,0-0.7-0.1-0.9-0.4
		c-0.2-0.2-0.3-0.6-0.3-1c0-0.4,0.1-0.8,0.3-1c0.2-0.2,0.5-0.4,0.9-0.4c0.3,0,0.6,0.1,0.8,0.4c0.2,0.2,0.3,0.6,0.3,1
		c0,0,0,0.1,0,0.1h-1.9c0,0.3,0.1,0.5,0.2,0.7c0.1,0.2,0.3,0.2,0.5,0.2c0.2,0,0.3,0,0.4-0.1C26.7,45.8,26.8,45.6,26.9,45.4z
		 M25.5,44.7h1.4c0-0.2-0.1-0.4-0.2-0.5c-0.1-0.2-0.3-0.3-0.5-0.3c-0.2,0-0.4,0.1-0.5,0.2C25.5,44.3,25.5,44.5,25.5,44.7z"/>
	<path class="st5" d="M27.9,46.3v-2.6h0.4v0.4c0.1-0.2,0.2-0.3,0.3-0.4c0.1-0.1,0.2-0.1,0.3-0.1c0.1,0,0.3,0,0.5,0.1l-0.2,0.4
		c-0.1-0.1-0.2-0.1-0.3-0.1c-0.1,0-0.2,0-0.3,0.1c-0.1,0.1-0.1,0.1-0.2,0.2c0,0.2-0.1,0.3-0.1,0.5v1.4H27.9z"/>
	<path class="st5" d="M31.9,44.7l-2.4,1v-0.4l1.9-0.8l-1.9-0.8v-0.4l2.4,1V44.7z"/>
</g>
<rect x="4" y="32.6" class="st3" width="22.7" height="3.8"/>
<g class="st4">
	<path class="st5" d="M4.7,34.1v-0.4l2.4-1v0.4l-1.9,0.8l1.9,0.8v0.4L4.7,34.1z"/>
	<path class="st5" d="M7.5,34.9l0.4-0.1c0,0.2,0.1,0.3,0.2,0.4c0.1,0.1,0.3,0.1,0.5,0.1c0.2,0,0.4,0,0.4-0.1s0.1-0.2,0.1-0.3
		c0-0.1,0-0.2-0.1-0.2c-0.1,0-0.2-0.1-0.4-0.1c-0.3-0.1-0.5-0.2-0.7-0.2c-0.1-0.1-0.2-0.1-0.3-0.2c-0.1-0.1-0.1-0.2-0.1-0.3
		c0-0.1,0-0.2,0.1-0.3c0.1-0.1,0.1-0.2,0.2-0.2C7.9,33.1,8,33.1,8.1,33C8.2,33,8.4,33,8.5,33c0.2,0,0.4,0,0.5,0.1
		c0.2,0.1,0.3,0.1,0.3,0.2c0.1,0.1,0.1,0.2,0.2,0.4l-0.4,0.1c0-0.1-0.1-0.2-0.2-0.3c-0.1-0.1-0.2-0.1-0.4-0.1c-0.2,0-0.3,0-0.4,0.1
		C8,33.5,8,33.6,8,33.7c0,0.1,0,0.1,0.1,0.2c0,0,0.1,0.1,0.2,0.1c0,0,0.2,0.1,0.4,0.1c0.3,0.1,0.5,0.2,0.7,0.2
		c0.1,0.1,0.2,0.1,0.3,0.2s0.1,0.2,0.1,0.4c0,0.1,0,0.3-0.1,0.4c-0.1,0.1-0.2,0.2-0.4,0.3c-0.2,0.1-0.3,0.1-0.5,0.1
		c-0.3,0-0.6-0.1-0.8-0.2C7.6,35.4,7.5,35.1,7.5,34.9z"/>
	<path class="st5" d="M11.9,34.8l0.5,0.1c-0.1,0.3-0.2,0.5-0.4,0.6s-0.4,0.2-0.7,0.2c-0.4,0-0.7-0.1-0.9-0.4c-0.2-0.2-0.3-0.6-0.3-1
		c0-0.4,0.1-0.8,0.3-1s0.5-0.4,0.9-0.4c0.3,0,0.6,0.1,0.8,0.4c0.2,0.2,0.3,0.6,0.3,1c0,0,0,0.1,0,0.1h-1.9c0,0.3,0.1,0.5,0.2,0.7
		c0.1,0.2,0.3,0.2,0.5,0.2c0.2,0,0.3,0,0.4-0.1S11.9,35,11.9,34.8z M10.5,34.1h1.4c0-0.2-0.1-0.4-0.2-0.5c-0.1-0.2-0.3-0.3-0.5-0.3
		c-0.2,0-0.4,0.1-0.5,0.2C10.6,33.7,10.5,33.9,10.5,34.1z"/>
	<path class="st5" d="M14.6,34.7l0.4,0.1c0,0.3-0.2,0.5-0.4,0.7c-0.2,0.2-0.4,0.3-0.7,0.3c-0.4,0-0.6-0.1-0.9-0.3
		c-0.2-0.2-0.3-0.6-0.3-1c0-0.3,0-0.5,0.1-0.7s0.2-0.4,0.4-0.5C13.6,33,13.8,33,14,33c0.3,0,0.5,0.1,0.7,0.2s0.3,0.3,0.3,0.6
		l-0.4,0.1c0-0.2-0.1-0.3-0.2-0.4c-0.1-0.1-0.2-0.1-0.4-0.1c-0.2,0-0.4,0.1-0.5,0.2c-0.1,0.2-0.2,0.4-0.2,0.8c0,0.3,0.1,0.6,0.2,0.8
		c0.1,0.2,0.3,0.2,0.5,0.2c0.2,0,0.3-0.1,0.4-0.2C14.5,35.1,14.6,34.9,14.6,34.7z"/>
	<path class="st5" d="M16.4,35.3l0.1,0.4c-0.1,0-0.2,0-0.3,0c-0.2,0-0.3,0-0.4-0.1c-0.1-0.1-0.1-0.1-0.2-0.2s-0.1-0.3-0.1-0.5v-1.5
		h-0.3v-0.3h0.3v-0.6l0.4-0.3v0.9h0.4v0.3H16v1.5c0,0.1,0,0.2,0,0.2c0,0,0,0.1,0.1,0.1c0,0,0.1,0,0.1,0
		C16.3,35.3,16.3,35.3,16.4,35.3z"/>
	<path class="st5" d="M16.8,32.6v-0.5h0.4v0.5H16.8z M16.8,35.6v-2.6h0.4v2.6H16.8z"/>
	<path class="st5" d="M17.8,34.3c0-0.5,0.1-0.8,0.4-1.1c0.2-0.2,0.5-0.3,0.8-0.3c0.4,0,0.6,0.1,0.9,0.4s0.3,0.6,0.3,1
		c0,0.3-0.1,0.6-0.1,0.8c-0.1,0.2-0.2,0.3-0.4,0.4c-0.2,0.1-0.4,0.2-0.6,0.2c-0.4,0-0.7-0.1-0.9-0.3C17.9,35.1,17.8,34.8,17.8,34.3z
		 M18.2,34.3c0,0.3,0.1,0.6,0.2,0.7s0.3,0.2,0.5,0.2c0.2,0,0.4-0.1,0.5-0.2s0.2-0.4,0.2-0.8c0-0.3-0.1-0.6-0.2-0.7
		c-0.1-0.2-0.3-0.2-0.5-0.2c-0.2,0-0.4,0.1-0.5,0.2S18.2,34,18.2,34.3z"/>
	<path class="st5" d="M20.7,35.6v-2.6h0.4v0.4c0.2-0.3,0.5-0.4,0.8-0.4c0.2,0,0.3,0,0.4,0.1c0.1,0.1,0.2,0.1,0.3,0.2
		c0.1,0.1,0.1,0.2,0.1,0.3c0,0.1,0,0.2,0,0.4v1.6h-0.4v-1.6c0-0.2,0-0.3-0.1-0.4s-0.1-0.2-0.2-0.2c-0.1-0.1-0.2-0.1-0.3-0.1
		c-0.2,0-0.3,0.1-0.5,0.2c-0.1,0.1-0.2,0.3-0.2,0.7v1.4H20.7z"/>
	<path class="st5" d="M25.8,34.1l-2.4,1v-0.4l1.9-0.8l-1.9-0.8v-0.4l2.4,1V34.1z"/>
</g>
<rect x="3.8" y="19.4" class="st3" width="22.7" height="3.8"/>
<g class="st4">
	<path class="st5" d="M5,21.9v-0.4l2.4-1v0.4l-1.9,0.8l1.9,0.8v0.4L5,21.9z"/>
	<path class="st5" d="M7.8,22.7l0.4-0.1c0,0.2,0.1,0.3,0.2,0.4c0.1,0.1,0.3,0.1,0.5,0.1c0.2,0,0.4,0,0.4-0.1s0.1-0.2,0.1-0.3
		c0-0.1,0-0.2-0.1-0.2c-0.1,0-0.2-0.1-0.4-0.1c-0.3-0.1-0.5-0.2-0.7-0.2C8.1,22.1,8,22,8,21.9c-0.1-0.1-0.1-0.2-0.1-0.3
		c0-0.1,0-0.2,0.1-0.3C8,21.1,8.1,21,8.2,21c0.1-0.1,0.2-0.1,0.3-0.1c0.1,0,0.2-0.1,0.4-0.1c0.2,0,0.4,0,0.5,0.1
		c0.2,0.1,0.3,0.1,0.3,0.2c0.1,0.1,0.1,0.2,0.2,0.4l-0.4,0.1c0-0.1-0.1-0.2-0.2-0.3c-0.1-0.1-0.2-0.1-0.4-0.1c-0.2,0-0.3,0-0.4,0.1
		c-0.1,0.1-0.1,0.1-0.1,0.2c0,0.1,0,0.1,0.1,0.2c0,0,0.1,0.1,0.2,0.1c0,0,0.2,0.1,0.4,0.1C9.2,22,9.5,22,9.6,22.1
		c0.1,0.1,0.2,0.1,0.3,0.2s0.1,0.2,0.1,0.4c0,0.1,0,0.3-0.1,0.4c-0.1,0.1-0.2,0.2-0.4,0.3c-0.2,0.1-0.3,0.1-0.5,0.1
		c-0.3,0-0.6-0.1-0.8-0.2C8,23.1,7.9,22.9,7.8,22.7z"/>
	<path class="st5" d="M12.3,22.6l0.5,0.1c-0.1,0.3-0.2,0.5-0.4,0.6s-0.4,0.2-0.7,0.2c-0.4,0-0.7-0.1-0.9-0.4c-0.2-0.2-0.3-0.6-0.3-1
		c0-0.4,0.1-0.8,0.3-1s0.5-0.4,0.9-0.4c0.3,0,0.6,0.1,0.8,0.4c0.2,0.2,0.3,0.6,0.3,1c0,0,0,0.1,0,0.1h-1.9c0,0.3,0.1,0.5,0.2,0.7
		c0.1,0.2,0.3,0.2,0.5,0.2c0.2,0,0.3,0,0.4-0.1S12.2,22.8,12.3,22.6z M10.8,21.9h1.4c0-0.2-0.1-0.4-0.2-0.5
		c-0.1-0.2-0.3-0.3-0.5-0.3c-0.2,0-0.4,0.1-0.5,0.2C10.9,21.5,10.8,21.7,10.8,21.9z"/>
	<path class="st5" d="M15,22.5l0.4,0.1c0,0.3-0.2,0.5-0.4,0.7c-0.2,0.2-0.4,0.3-0.7,0.3c-0.4,0-0.6-0.1-0.9-0.3
		c-0.2-0.2-0.3-0.6-0.3-1c0-0.3,0-0.5,0.1-0.7s0.2-0.4,0.4-0.5c0.2-0.1,0.4-0.2,0.6-0.2c0.3,0,0.5,0.1,0.7,0.2s0.3,0.3,0.3,0.6
		l-0.4,0.1c0-0.2-0.1-0.3-0.2-0.4c-0.1-0.1-0.2-0.1-0.4-0.1c-0.2,0-0.4,0.1-0.5,0.2c-0.1,0.2-0.2,0.4-0.2,0.8c0,0.3,0.1,0.6,0.2,0.8
		c0.1,0.2,0.3,0.2,0.5,0.2c0.2,0,0.3-0.1,0.4-0.2C14.9,22.9,14.9,22.7,15,22.5z"/>
	<path class="st5" d="M16.7,23l0.1,0.4c-0.1,0-0.2,0-0.3,0c-0.2,0-0.3,0-0.4-0.1c-0.1-0.1-0.1-0.1-0.2-0.2s-0.1-0.3-0.1-0.5v-1.5
		h-0.3v-0.3h0.3v-0.6l0.4-0.3v0.9h0.4v0.3h-0.4v1.5c0,0.1,0,0.2,0,0.2c0,0,0,0.1,0.1,0.1c0,0,0.1,0,0.1,0
		C16.6,23.1,16.7,23.1,16.7,23z"/>
	<path class="st5" d="M17.2,20.4v-0.5h0.4v0.5H17.2z M17.2,23.4v-2.6h0.4v2.6H17.2z"/>
	<path class="st5" d="M18.1,22.1c0-0.5,0.1-0.8,0.4-1.1c0.2-0.2,0.5-0.3,0.8-0.3c0.4,0,0.6,0.1,0.9,0.4s0.3,0.6,0.3,1
		c0,0.3-0.1,0.6-0.1,0.8c-0.1,0.2-0.2,0.3-0.4,0.4c-0.2,0.1-0.4,0.2-0.6,0.2c-0.4,0-0.7-0.1-0.9-0.3C18.2,22.9,18.1,22.6,18.1,22.1z
		 M18.6,22.1c0,0.3,0.1,0.6,0.2,0.7s0.3,0.2,0.5,0.2c0.2,0,0.4-0.1,0.5-0.2s0.2-0.4,0.2-0.8c0-0.3-0.1-0.6-0.2-0.7
		c-0.1-0.2-0.3-0.2-0.5-0.2c-0.2,0-0.4,0.1-0.5,0.2S18.6,21.8,18.6,22.1z"/>
	<path class="st5" d="M21.1,23.4v-2.6h0.4v0.4c0.2-0.3,0.5-0.4,0.8-0.4c0.2,0,0.3,0,0.4,0.1c0.1,0.1,0.2,0.1,0.3,0.2
		c0.1,0.1,0.1,0.2,0.1,0.3c0,0.1,0,0.2,0,0.4v1.6h-0.4v-1.6c0-0.2,0-0.3-0.1-0.4s-0.1-0.2-0.2-0.2c-0.1-0.1-0.2-0.1-0.3-0.1
		c-0.2,0-0.3,0.1-0.5,0.2c-0.1,0.1-0.2,0.3-0.2,0.7v1.4H21.1z"/>
	<path class="st5" d="M26.1,21.9l-2.4,1v-0.4l1.9-0.8l-1.9-0.8v-0.4l2.4,1V21.9z"/>
</g>
<g>
	<path class="st5" d="M34.8,19.5l1.2,2.3h-0.3l-1-2l0,0l-1,2h-0.3l1.2-2.3H34.8z"/>
	<path class="st5" d="M33.4,23.8h0.3l0,0c-0.2-0.1-0.4-0.4-0.4-0.7c0-0.5,0.3-0.7,0.7-0.7c0.6,0,0.9,0.5,0.9,1.5l0,0
		c0.2,0,0.6-0.1,0.6-0.6c0-0.2-0.1-0.5-0.2-0.6l0.3-0.1c0.1,0.2,0.2,0.5,0.2,0.8c0,0.7-0.5,0.9-1,0.9h-0.9c-0.2,0-0.4,0-0.6,0v-0.5
		H33.4z M34.6,23.8c0-0.5-0.1-1-0.5-1c-0.3,0-0.4,0.2-0.4,0.4c0,0.3,0.2,0.5,0.4,0.6h0.1H34.6z"/>
	<path class="st5" d="M33.8,24.8c-0.1,0.1-0.2,0.4-0.2,0.6c0,0.3,0.2,0.5,0.4,0.5c0.2,0,0.3-0.1,0.4-0.5c0.2-0.4,0.4-0.6,0.7-0.6
		c0.4,0,0.7,0.3,0.7,0.8c0,0.2-0.1,0.5-0.2,0.6l-0.3-0.1c0.1-0.1,0.1-0.3,0.1-0.5c0-0.3-0.2-0.4-0.3-0.4c-0.2,0-0.3,0.1-0.4,0.5
		c-0.2,0.4-0.4,0.6-0.7,0.6c-0.4,0-0.7-0.3-0.7-0.9c0-0.3,0.1-0.5,0.2-0.7L33.8,24.8z"/>
	<path class="st5" d="M36.5,27.4c-0.2,0-0.3-0.1-0.3-0.3c0-0.2,0.1-0.3,0.3-0.3c0.2,0,0.3,0.1,0.3,0.3
		C36.7,27.3,36.6,27.4,36.5,27.4z M33.4,26.9h2.4v0.4h-2.4V26.9z"/>
	<path class="st5" d="M36.9,30.1H34c-0.2,0-0.5,0-0.6,0v-0.4h0.4l0,0c-0.3-0.1-0.5-0.4-0.5-0.8c0-0.6,0.5-1,1.2-1
		c0.8,0,1.3,0.5,1.3,1.1c0,0.4-0.2,0.6-0.4,0.7l0,0h1.4L36.9,30.1L36.9,30.1z M34.8,29.7c0.1,0,0.1,0,0.2,0c0.3-0.1,0.5-0.3,0.5-0.6
		c0-0.5-0.4-0.7-0.9-0.7s-0.9,0.2-0.9,0.7c0,0.3,0.2,0.6,0.5,0.6c0.1,0,0.1,0,0.2,0H34.8z"/>
	<path class="st5" d="M34.5,31.1c-0.6,0-0.8,0.4-0.8,0.8c0,0.3,0.1,0.5,0.1,0.7l-0.3,0.1c-0.1-0.2-0.2-0.4-0.2-0.8
		c0-0.7,0.5-1.2,1.2-1.2c0.7,0,1.3,0.4,1.3,1.1c0,0.8-0.7,1-1.1,1c-0.1,0-0.2,0-0.2,0V31.1z M34.8,32.4c0.3,0,0.7-0.1,0.7-0.6
		c0-0.4-0.4-0.6-0.7-0.7V32.4z"/>
	<path class="st5" d="M34.5,35.7l-1.1-2.4h0.3l1,2l0,0l1-2H36l-1.2,2.3h-0.3V35.7z"/>
</g>
</svg>
